<svg xmlns="http://www.w3.org/2000/svg" viewBox="0 0 448.06 434.38"><defs><style>.cls-1{isolation:isolate;}.cls-2{fill:#2d7cff;}.cls-10,.cls-13,.cls-2,.cls-3,.cls-4,.cls-5,.cls-6{stroke:#000;stroke-linecap:round;stroke-linejoin:round;stroke-width:0.45px;}.cls-3{fill:#2065c9;}.cls-4{fill:#fcb7a2;}.cls-5{fill:#2b353e;}.cls-6,.cls-9{fill:#363954;}.cls-7{fill:#e58673;}.cls-11,.cls-8{fill:#e26969;}.cls-11{mix-blend-mode:multiply;opacity:0.2;}.cls-12{fill:#fff;}.cls-13{fill:none;}.cls-14{fill:#a1a4d6;}.cls-15{fill:#daddfb;}</style></defs><g class="cls-1"><g id="Layer_2" data-name="Layer 2"><g id="OBJECTS"><path class="cls-2" d="M145.83,434.16V317.41a59,59,0,0,1,59-59h0a59,59,0,0,1,59,59V434.16Z"/><polygon class="cls-3" points="263.84 376.45 246.19 367.65 263.84 434.16 263.84 434.16 263.84 376.45"/><path class="cls-4" d="M224.75,269.13A19.75,19.75,0,0,1,205,288.89h0a19.76,19.76,0,0,1-19.76-19.76V236.76A19.76,19.76,0,0,1,205,217h0a19.75,19.75,0,0,1,19.76,19.76Z"/><path class="cls-5" d="M205,217a19.76,19.76,0,0,0-19.76,19.76v13a27.46,27.46,0,0,0,39.52-10.67v-2.35A19.75,19.75,0,0,0,205,217Z"/><path class="cls-4" d="M232.31,219.47a27.47,27.47,0,0,1-27.48,27.47h0a27.47,27.47,0,0,1-27.47-27.47V194.22a27.47,27.47,0,0,1,27.47-27.47h0a27.47,27.47,0,0,1,27.48,27.47Z"/><path class="cls-6" d="M183.13,198.63c0,4.18-7.55,4.66-7.55,10.85h0a7.55,7.55,0,0,1-7.56-7.55v-6.59a7.55,7.55,0,0,1,7.56-7.55h0a7.55,7.55,0,0,1,7.55,7.55Z"/><path class="cls-4" d="M180.55,215.54A9.83,9.83,0,1,1,183,200.92"/><path class="cls-7" d="M179,207.43a.43.43,0,0,0-.09-.26,9.21,9.21,0,0,0-7.72-6.32c-.57-.07-.56.82,0,.89a8.12,8.12,0,0,1,6.69,5.24,4.35,4.35,0,0,0-3.08,1.06,3.75,3.75,0,0,0-.92,3.36c.4,2.59,3.39,2.95,5.48,2.63a.43.43,0,0,0,.64-.38A18.15,18.15,0,0,0,179,207.43Zm-4.17,4.07a2.83,2.83,0,0,1,.6-2.83,3.4,3.4,0,0,1,2.79-.8,17.47,17.47,0,0,1,.88,5.3C177.51,213.42,175.53,213.28,174.86,211.5Z"/><path class="cls-6" d="M226.54,198.63c0,4.18,7.55,4.66,7.55,10.85h0a7.55,7.55,0,0,0,7.56-7.55v-6.59a7.55,7.55,0,0,0-7.56-7.55h0a7.55,7.55,0,0,0-7.55,7.55Z"/><path class="cls-4" d="M229.12,215.54a9.82,9.82,0,1,0-2.44-14.63"/><path class="cls-7" d="M229.64,213.65a.43.43,0,0,0,.64.38c2.09.32,5.08,0,5.48-2.63a3.75,3.75,0,0,0-.92-3.36,4.35,4.35,0,0,0-3.08-1.06,8.12,8.12,0,0,1,6.69-5.24c.56-.07.57-1,0-.89a9.21,9.21,0,0,0-7.72,6.32.43.43,0,0,0-.09.26A18.15,18.15,0,0,0,229.64,213.65Zm.9-.48a17.47,17.47,0,0,1,.88-5.3,3.4,3.4,0,0,1,2.79.8,2.85,2.85,0,0,1,.6,2.83C234.14,213.28,232.16,213.42,230.54,213.17Z"/><path class="cls-8" d="M200.22,223.28a.5.5,0,0,1-.26-.08.45.45,0,0,1-.1-.63c2.29-3.15,5.68-4.84,10.06-5a.43.43,0,0,1,.47.42.46.46,0,0,1-.43.47c-4.1.15-7.25,1.71-9.38,4.64A.44.44,0,0,1,200.22,223.28Z"/><path class="cls-9" d="M221.15,190.63h0a6.64,6.64,0,0,1-5.69-3.17.45.45,0,0,1,.14-.62.45.45,0,0,1,.61.14,5.78,5.78,0,0,0,5,2.76.45.45,0,0,1,0,.9Z"/><path class="cls-9" d="M189.38,187.51h-.1A.45.45,0,0,1,189,187a7.48,7.48,0,0,1,3.79-5,4.62,4.62,0,0,1,4.19.06.44.44,0,1,1-.4.79,3.8,3.8,0,0,0-3.4-.05,6.55,6.55,0,0,0-3.31,4.43A.45.45,0,0,1,189.38,187.51Z"/><path class="cls-10" d="M218,195.89c0,1.11-.6,2-1.34,2s-1.33-.9-1.33-2,.59-2,1.33-2S218,194.79,218,195.89Z"/><path class="cls-10" d="M195.73,195.89c0,1.11-.6,2-1.34,2s-1.33-.9-1.33-2,.59-2,1.33-2S195.73,194.79,195.73,195.89Z"/><path class="cls-11" d="M225.25,201.55a3.66,3.66,0,1,1-3.66-3.65A3.65,3.65,0,0,1,225.25,201.55Z"/><path class="cls-11" d="M193.06,201.55a3.66,3.66,0,1,1-3.66-3.65A3.65,3.65,0,0,1,193.06,201.55Z"/><path class="cls-12" d="M216.7,214.57a9.54,9.54,0,0,1-7.09-3.32.45.45,0,0,1,.66-.6,8.63,8.63,0,0,0,6.43,3c5.25,0,9.52-5.16,9.52-11.5s-4.27-11.51-9.52-11.51-9.51,5.16-9.51,11.51a13.41,13.41,0,0,0,.16,2.1.46.46,0,0,1-.38.51.45.45,0,0,1-.5-.38,13.78,13.78,0,0,1-.17-2.23c0-6.84,4.67-12.4,10.4-12.4s10.41,5.56,10.41,12.4S222.44,214.57,216.7,214.57Z"/><path class="cls-7" d="M206.1,211.74a17.3,17.3,0,0,1-2.47-.19.32.32,0,0,1-.28-.37.34.34,0,0,1,.37-.29c3,.41,5.09.12,6.11-.87a2.8,2.8,0,0,0,.72-2.43c-.27-2.48-3.93-2.48-4-2.49a.43.43,0,0,1-.24-.1.34.34,0,0,1-.1-.23V193.34a.34.34,0,1,1,.67,0v11.1c1.55.08,4.07.79,4.31,3.07a3.45,3.45,0,0,1-.91,3A5.94,5.94,0,0,1,206.1,211.74Z"/><path class="cls-12" d="M193,214.57c-5.74,0-10.41-5.56-10.41-12.39s4.67-12.4,10.41-12.4,10.4,5.56,10.4,12.4S198.71,214.57,193,214.57Zm0-23.9c-5.25,0-9.52,5.16-9.52,11.51s4.27,11.5,9.52,11.5,9.51-5.16,9.51-11.5S198.21,190.67,193,190.67Z"/><path class="cls-12" d="M207.29,203.13a.53.53,0,0,1-.24-.06,4.51,4.51,0,0,0-4.32,0,.45.45,0,0,1-.61-.17.45.45,0,0,1,.17-.61,5.39,5.39,0,0,1,5.24,0,.45.45,0,0,1,.14.62A.46.46,0,0,1,207.29,203.13Z"/><path class="cls-4" d="M127.21,227.13,147.37,215s-9.17-17-4.26-27.19,28.39-17.12,30.18-14.6-13.69,9.81-13.69,9.81,19.23.4,19.8,4.32-19,2.65-19,2.65,17.66,5.44,16.82,8.15-16.94.5-16.94.5,9.92,10.76,7.16,18.41L144,241.74Z"/><path class="cls-5" d="M147.37,215l-13.46,8.08,19.4.78S151.37,220.66,147.37,215Z"/><path class="cls-2" d="M145.83,379.34C50,335.7,33.29,269.54,59.46,256.88s82.3-43.78,82.3-43.78l15.11,27.62-36.51,38.9,49.44-9.69"/><line class="cls-13" x1="102.05" y1="299.13" x2="156.87" y2="240.72"/><path class="cls-3" d="M48.41,275.88c-1.35,26.1,26.15,71,97.42,103.46l3.46-22C80.46,343.18,54.1,304.2,48.41,275.88Z"/><path class="cls-4" d="M357.23,302l2.52-25.68s17,4.56,25.28-3.11,8-32.17,5.09-33.14-5.35,16-5.35,16-6-18.27-10-17.66,3.05,18.91,3.05,18.91S367.47,242,365.13,243.61,369.62,260,369.62,260s-13.37-6.11-23.63,3.78L331.21,304.2Z"/><path class="cls-10" d="M350.42,271.28l8,18.87,1.36-13.83A15.55,15.55,0,0,1,350.42,271.28Z"/><path class="cls-2" d="M246.19,367.65c67.84,38.45,121.3,28.8,122.25,6.21,1.23-29.05-4.24-85.38-4.24-85.38l-31.36-2.92L318,333.77s-62.26-55.22-80.66-65.59"/><line class="cls-13" x1="312.12" y1="353.03" x2="332.84" y2="285.56"/><path class="cls-14" d="M206.33,28.53a43,43,0,1,1-55-26A43,43,0,0,1,206.33,28.53Z"/><path class="cls-12" d="M200.59,30.58A36.91,36.91,0,1,1,153.4,8.26,36.92,36.92,0,0,1,200.59,30.58Z"/><path class="cls-15" d="M196.53,32a32.61,32.61,0,1,1-41.68-19.71A32.6,32.6,0,0,1,196.53,32Z"/><path class="cls-14" d="M175.89,71l-.13,0c-.24.09-.58.21-.93.31a1.08,1.08,0,0,1-.65-2.07l.95-.32a1.1,1.1,0,0,1,1.4.65A1.08,1.08,0,0,1,175.89,71Zm11.48-7.65a1,1,0,0,1-1.1-.22,1.08,1.08,0,0,1-.07-1.53c.23-.26.46-.51.68-.77a1.09,1.09,0,1,1,1.66,1.4c-.24.28-.48.56-.73.83A1,1,0,0,1,187.37,63.38Zm-26.26,8.88a1.17,1.17,0,0,1-.56,0l-1.09-.22a1.09,1.09,0,0,1-.83-1.3,1.1,1.1,0,0,1,1.3-.83c.33.08.67.15,1,.21a1.09,1.09,0,0,1,.17,2.09Zm33.09-22a1.21,1.21,0,0,1-.6,0,1.09,1.09,0,0,1-.83-1.3c.07-.34.14-.67.2-1a1.09,1.09,0,1,1,2.14.39c-.06.36-.14.73-.22,1.09A1.07,1.07,0,0,1,194.2,50.22ZM147.69,65.94a1.08,1.08,0,0,1-1.07-.19l-.83-.74a1.08,1.08,0,1,1,1.46-1.6l.77.68a1.08,1.08,0,0,1,.13,1.53A1,1,0,0,1,147.69,65.94ZM193.53,35.4l0,0a1.09,1.09,0,0,1-1.36-.71c-.1-.33-.21-.66-.33-1l0-.11a1.09,1.09,0,0,1,2.05-.74l0,.12c.13.35.24.7.35,1A1.08,1.08,0,0,1,193.53,35.4ZM139.22,53.73a1.06,1.06,0,0,1-1.38-.63l0-.05c-.12-.33-.23-.67-.34-1a1,1,0,0,1,.71-1.36,1.09,1.09,0,0,1,1.37.7c.09.31.2.62.31.92A1.11,1.11,0,0,1,139.22,53.73Zm46.25-30.91a1.07,1.07,0,0,1-1.09-.22l-.78-.68a1.09,1.09,0,1,1,1.4-1.66c.28.23.56.48.84.73a1.08,1.08,0,0,1,.07,1.53A1,1,0,0,1,185.47,22.82ZM138,39a1,1,0,0,1-.56.05,1.09,1.09,0,0,1-.88-1.26c.07-.37.14-.73.22-1.1a1.1,1.1,0,0,1,1.3-.83,1.09,1.09,0,0,1,.82,1.3c-.07.34-.14.68-.2,1A1.07,1.07,0,0,1,138,39ZM172.29,16a1.11,1.11,0,0,1-.6,0c-.34-.08-.68-.14-1-.2a1.09,1.09,0,0,1,.39-2.15l1.09.22a1.09,1.09,0,0,1,.14,2.09Zm-28,9.53a1.11,1.11,0,0,1-1.07-.2,1.08,1.08,0,0,1-.13-1.53c.24-.28.48-.56.73-.83a1.09,1.09,0,1,1,1.61,1.46c-.23.25-.46.51-.68.77A1.23,1.23,0,0,1,144.29,25.56Zm13.18-8.82h0l-.89.3a1.11,1.11,0,0,1-1.43-.64,1,1,0,0,1,.61-1.37l.37,1-.32-1c.36-.13.68-.24,1-.34a1.09,1.09,0,0,1,.69,2.06Z"/><path class="cls-14" d="M167.79,50.6a.53.53,0,0,1-.27-.32l-10-31.49a.54.54,0,1,1,1-.33l10,31.49a.54.54,0,0,1-.36.68A.53.53,0,0,1,167.79,50.6Z"/><path class="cls-14" d="M157.74,44.59a1.09,1.09,0,0,1,.37-2.05l34.29-4a1.09,1.09,0,0,1,.26,2.16L158.37,44.7A1,1,0,0,1,157.74,44.59Z"/><path class="cls-14" d="M300.91,79.88C297.66,92.35,268,113.63,268,113.63s-15.5-33-12.25-45.51a23.33,23.33,0,0,1,45.16,11.76Z"/><path class="cls-15" d="M291.35,77.39A13.46,13.46,0,1,1,281.72,61,13.45,13.45,0,0,1,291.35,77.39Z"/><path class="cls-15" d="M448.06,129.83c0,29.82-26.19,54-58.5,54s-58.5-24.18-58.5-54,26.19-54,58.5-54S448.06,100,448.06,129.83Z"/><path class="cls-15" d="M317.58,151a12.58,12.58,0,1,1,8.08-15.86A12.59,12.59,0,0,1,317.58,151Z"/><path class="cls-15" d="M298.25,162.87a6.69,6.69,0,1,1,4.3-8.43A6.69,6.69,0,0,1,298.25,162.87Z"/><path class="cls-15" d="M284.35,173.45a4.48,4.48,0,1,1,2.87-5.64A4.47,4.47,0,0,1,284.35,173.45Z"/><path class="cls-14" d="M342.55,147.14c4.56,10.6,14.84,15.11,25.45,15.19,8.44,2.8,20.45,2.32,29-2.12a46.13,46.13,0,0,0,9.26-3,28.08,28.08,0,0,0,5.4-3.21,58.15,58.15,0,0,0,7.81,0c7-.51,14.35-2.28,19.3-7.66,2.75-3,3.74-6.74,1.25-10.19-2.92-4-9-5.81-13.51-7.14a94.93,94.93,0,0,0-10.84-2.44,10.85,10.85,0,0,0,1.11-1.42c3-4.63.32-7.54-3.4-9a16.86,16.86,0,0,0-6.2-5.32c-6.27-3.19-14.24-2.66-21.06-1.23a40.07,40.07,0,0,0-16.27-.25A31.24,31.24,0,0,0,353,119.07a22.58,22.58,0,0,0-9,6.94C339.35,132.08,339.65,140.39,342.55,147.14Zm17.87,11.92a22.73,22.73,0,0,1-15.15-12.37c-.65-9.42,3.29-18.65,9.63-25.54a18.16,18.16,0,0,1,8.14-.92,15.28,15.28,0,0,1,2.64.56c-1.76,2.55-2.49,5.5-1.07,8-3.89,3.39-7,8-6.32,13.33a15.7,15.7,0,0,0,.62,2.85,11.4,11.4,0,0,0,2.66,6.33,24.72,24.72,0,0,0,11.95,8.19A36.25,36.25,0,0,1,360.42,159.06ZM385,111.93a26.38,26.38,0,0,1,11.2,5,41.37,41.37,0,0,0-5.52,2.18A41.93,41.93,0,0,0,374,123a20.42,20.42,0,0,0-4.67-3.24,20.93,20.93,0,0,1,3.83-3A40.57,40.57,0,0,1,385,111.93Zm26.6,5.53a9.13,9.13,0,0,1,1.14,8.61l-.6-.08c-.62-.47-1.24-.9-1.86-1.3a34.52,34.52,0,0,0-6.84-3.44,21.26,21.26,0,0,0-2.48-3.48A26.14,26.14,0,0,1,411.61,117.46ZM410.33,152c-1.47-.14-2.94-.35-4.39-.6a13,13,0,0,0-1.37-11.66,24.19,24.19,0,0,0,.79-2.31,27.22,27.22,0,0,0,7.63-7.21c5.29,5,7,11.84,0,19.37A22.45,22.45,0,0,1,410.33,152ZM396,158l-1.07.53a43.74,43.74,0,0,1-10.9.56A44.17,44.17,0,0,0,396.57,151a58.26,58.26,0,0,0,5.83,1.64A17.35,17.35,0,0,1,396,158ZM373.45,126a16.76,16.76,0,0,1,2.34,3.72c-1.33.49-2.73,1.05-4.15,1.7-.58-.19-1.16-.39-1.72-.61a8.72,8.72,0,0,1-2.29-1.27A32.15,32.15,0,0,1,373.45,126Zm28.32-2.23c.2.42.38.85.55,1.28a66.52,66.52,0,0,0-19.76,2.51,24,24,0,0,1,7.87-5.91A37.14,37.14,0,0,1,401.77,123.74Zm-40.82,20c.41-4.26,5.51-7.65,11.5-10.17l.44.11c-3,1.37-5.4,3.46-6,6.5-.77,3.71,2.4,5.36,6.07,6-2.41,2.57-5.77,4.55-8.83,2.61A7.15,7.15,0,0,1,361,143.79Zm42.33-15.33a18.09,18.09,0,0,1,.24,2.31,58.94,58.94,0,0,1-9.5,2.16,36.37,36.37,0,0,0-11.77-1.35c-.56,0-1.15.07-1.76.14a9.1,9.1,0,0,1,.27-1c4.31-1.25,8.19-2.06,10.2-2.44a55,55,0,0,1,12.1-.81C403.13,127.8,403.22,128.12,403.28,128.46Zm2.51-.83c1.51.11,3,.27,4.53.46-.89.43-1.79.8-2.61,1.14-.53.23-1.07.43-1.61.64A21.9,21.9,0,0,0,405.79,127.63Zm-29.06,4.77-.63.17-.6-.13,1.14-.41C376.68,132.15,376.7,132.28,376.73,132.4Zm-6.41,5.66a14.05,14.05,0,0,1,6.79-3.53,14.18,14.18,0,0,1-1.78,8.51c-.26.44-.56.91-.89,1.38C370.14,143.75,366.36,142,370.32,138.06Zm9,0a15.34,15.34,0,0,0,4.42,6.15l-2.29.4a23.88,23.88,0,0,1-4.35.08A18.77,18.77,0,0,0,379.36,138.08Zm1.18-2.66c-.05-.23-.08-.45-.12-.66l1.48.1a79.08,79.08,0,0,0,9.25.14,31.91,31.91,0,0,1,3.44,1,18.12,18.12,0,0,1,5,2.64,80.57,80.57,0,0,1-8.48,3.63,40.75,40.75,0,0,1-4.89,1.44A15.22,15.22,0,0,1,380.54,135.42ZM401,140c.14.14.27.29.4.43a30,30,0,0,1-6,8.26,36.32,36.32,0,0,1-7.22-3.47A62.65,62.65,0,0,0,401,140Zm1.18-2.81a21.18,21.18,0,0,0-4.63-2.9l.21,0c1.74-.33,3.7-.74,5.69-1.29a19.59,19.59,0,0,1-.7,3.89C402.61,137,402.41,137.07,402.22,137.18Zm4-5a31.72,31.72,0,0,0,4.08-1.67,24.13,24.13,0,0,1-4.31,4.19A19.19,19.19,0,0,0,406.18,132.14Zm-1-7,0-.09.23.11Zm-25.22,3.13-1.72.55a16.68,16.68,0,0,0-2.43-3.92,55.36,55.36,0,0,1,9.57-2.88l.46-.09A19,19,0,0,0,379.93,128.3Zm-13.7,2.38a12.52,12.52,0,0,0,3,1.86,25.71,25.71,0,0,0-8,6,13.76,13.76,0,0,1,1.72-4.1A19.24,19.24,0,0,1,366.23,130.68ZM370.76,151a14.81,14.81,0,0,0,5.12-4.32,34.5,34.5,0,0,0,5.26-.07,40.9,40.9,0,0,0,4.67-.75,40.22,40.22,0,0,0,8.2,4.24,38,38,0,0,1-5,3.77,39.62,39.62,0,0,1-10.2,4.54,28.71,28.71,0,0,1-13.49-6.52A8.08,8.08,0,0,0,370.76,151Zm29.95-.67c-.87-.21-1.76-.47-2.68-.74a32.78,32.78,0,0,0,5-6.67,9.91,9.91,0,0,1,1,4.15,9.57,9.57,0,0,1-.74,3.87C402.44,150.7,401.57,150.5,400.71,150.28ZM399.39,120a34.22,34.22,0,0,0-3.75-.66c.84-.31,1.65-.58,2.42-.81A18.56,18.56,0,0,1,399.39,120Zm-27.72,4.1c-1.19.62-2.35,1.29-3.49,2-.69.44-1.39.92-2.06,1.43-.72-1.87.12-4,1.62-6A16.45,16.45,0,0,1,371.67,124.13Zm.9,38a40.44,40.44,0,0,0,6.49-1.25,43.45,43.45,0,0,0,7.5.56A41,41,0,0,1,372.57,162.1Zm29.79-5.62a18.44,18.44,0,0,0,2.23-2.54c.18-.25.34-.51.5-.78,1,.18,2,.33,3,.46A32.31,32.31,0,0,1,402.36,156.48Zm36-18.92c4.86,5.81-6.45,11.7-10.52,13a41.49,41.49,0,0,1-14.12,1.68A19.81,19.81,0,0,0,420,141c.76-4.66-1.46-8.8-4.61-12.07,2.44.44,4.86,1,7.24,1.5C427.94,131.6,434.75,133.21,438.39,137.56Zm-22.81-14.83a10.55,10.55,0,0,0-.57-3.46A4.1,4.1,0,0,1,415.58,122.73Zm-16.85-11.89a19.36,19.36,0,0,1,10.76,4.3c-.56-.07-1.11-.11-1.63-.13a34,34,0,0,0-8.57,1,26.28,26.28,0,0,0-8.49-5.1A43.87,43.87,0,0,1,398.73,110.84Zm-18.94.43a30.09,30.09,0,0,0-12.54,7.58,23.52,23.52,0,0,0-2.71-.83,18,18,0,0,0-5.92-.39C364.69,112.68,372.18,110.82,379.79,111.27Zm-31.1,13.52a37.37,37.37,0,0,0-5.41,15.6A19.21,19.21,0,0,1,343,138,16.42,16.42,0,0,1,348.69,124.79Z"/><path class="cls-15" d="M210.27,97c-1.55-.28-2-2.2-1.47-5.74A18,18,0,0,1,210,86.79a5.89,5.89,0,0,1,2.23-2.51,4.74,4.74,0,0,1,3.49-.67,6.89,6.89,0,0,1,3.21,1.28A6.08,6.08,0,0,1,220.69,87a8.1,8.1,0,0,1,.68,2.92,26.48,26.48,0,0,1-.4,6.57,44.7,44.7,0,0,1-2.15,8.11,62.3,62.3,0,0,1-2.89,7.14,73.64,73.64,0,0,0-5.82,19.76c-.43,2.66-.71,4.51-.85,5.53a5.67,5.67,0,0,0-1.69-.15.78.78,0,0,1-.4.06c-1-.17-1.6-.89-1.72-2.18a109,109,0,0,1,5.69-20.37,104.27,104.27,0,0,0,5.43-18.8q1.22-7.53-1.24-7.93c-1-.17-1.77,1-2.16,3.41-.07.43-.13,2-.17,4.56q-.06.36-1.17.87A3.48,3.48,0,0,1,210.27,97Zm-.76,46.71c-.34,2.1-1.63,3-3.86,2.6a2.7,2.7,0,0,1-1.88-1.27,3,3,0,0,1,.84-4.29,3.06,3.06,0,0,1,2.33-.68,2.91,2.91,0,0,1,1.94,1.41A3.19,3.19,0,0,1,209.51,143.66Z"/><path class="cls-14" d="M231.77,112.4q-1.58-.81.21-4.43a13.11,13.11,0,0,1,1.82-2.91,4.42,4.42,0,0,1,2.15-1.31,3.59,3.59,0,0,1,2.65.29,5.16,5.16,0,0,1,2,1.63,4.67,4.67,0,0,1,.81,1.92,6.16,6.16,0,0,1-.16,2.24,20,20,0,0,1-1.74,4.62,32.59,32.59,0,0,1-3.32,5.33,45.91,45.91,0,0,1-3.65,4.48A55,55,0,0,0,224,137.13c-.9,1.81-1.51,3.07-1.83,3.77a4.1,4.1,0,0,0-1.18-.48.62.62,0,0,1-.3,0,1.55,1.55,0,0,1-.75-1.94,81.74,81.74,0,0,1,8.57-13.33,77.55,77.55,0,0,0,8-12.27c1.69-3.41,2-5.4.87-6-.72-.35-1.49.3-2.31,2-.14.3-.52,1.37-1.12,3.24-.08.16-.43.28-1,.36A2.54,2.54,0,0,1,231.77,112.4Zm-10.85,33.29c-.71,1.43-1.82,1.76-3.34,1a2,2,0,0,1-1.06-1.33,2.23,2.23,0,0,1,1.55-2.88,2.26,2.26,0,0,1,1.81,0A2.12,2.12,0,0,1,221,144,2.43,2.43,0,0,1,220.92,145.69Z"/><path class="cls-15" d="M112.49,137.66a12.59,12.59,0,1,0,12.59-12.58A12.59,12.59,0,0,0,112.49,137.66Z"/><circle class="cls-15" cx="143.72" cy="154.57" r="6.7"/><ellipse class="cls-15" cx="58.5" cy="97.02" rx="58.5" ry="54"/><path class="cls-14" d="M93.66,121.83l3.26,3.34a24.58,24.58,0,0,0,6-9.62l-4.4-1.5a20.22,20.22,0,0,0,.89-3.83l4.6.6a24.33,24.33,0,0,0-1.19-11.31l-4.39,1.55a19.83,19.83,0,0,0-5-7.72L96.72,90a24.25,24.25,0,0,0-9.1-5.51l-.7-.23L85.55,88.7a19.72,19.72,0,0,0-9.18-.59l-.8-4.58A24.65,24.65,0,0,0,65.13,88l2.78,3.74A19.66,19.66,0,0,0,62,98.83l-4.18-2.09a24.74,24.74,0,0,0-1.26,3.05,24.34,24.34,0,0,0-1.31,8l4.67,0a19.9,19.9,0,0,0,2.18,8.94L58,118.85a24.54,24.54,0,0,0,7.39,8.63l2.73-3.76a19.72,19.72,0,0,0,5.3,2.74,19.38,19.38,0,0,0,3.2.78l-.75,4.61A24.48,24.48,0,0,0,87.18,131l-1.41-4.45A20,20,0,0,0,93.66,121.83ZM75.9,119.08a12.05,12.05,0,1,1,15.28-7.54A12.05,12.05,0,0,1,75.9,119.08Z"/><path class="cls-12" d="M36.18,100.38l.27,3.23a17.06,17.06,0,0,0,7.48-2.48l-1.69-2.74a13.33,13.33,0,0,0,2.17-1.65l2.19,2.35A16.88,16.88,0,0,0,51,92.52l-3-1.11a13.87,13.87,0,0,0,.74-6.33l3.22-.38a17,17,0,0,0-2.43-7l-.28-.43-2.7,1.78a13.74,13.74,0,0,0-4.65-4.37l1.6-2.8a17.19,17.19,0,0,0-7.57-2.2l-.16,3.22a13.63,13.63,0,0,0-6.27,1.18l-1.31-3a17.75,17.75,0,0,0-2,1.07,16.73,16.73,0,0,0-4.24,3.71l2.5,2a13.9,13.9,0,0,0-2.78,5.74L18.43,83a17.19,17.19,0,0,0,.13,7.88l3.12-.8a14,14,0,0,0,1.62,3.8,14.79,14.79,0,0,0,1.37,1.83l-2.43,2.13a17,17,0,0,0,6.43,4.56l1.2-3A13.88,13.88,0,0,0,36.18,100.38Zm-8.27-9.31A8.36,8.36,0,1,1,39.4,93.79,8.35,8.35,0,0,1,27.91,91.07Z"/></g></g></g></svg>