<svg xmlns="http://www.w3.org/2000/svg" viewBox="0 0 387.78 339.73"><defs><style>.cls-1{fill:#f5f5f5;}.cls-2{fill:#ffc3bd;}.cls-3{fill:#263238;}.cls-10,.cls-4{opacity:0.2;}.cls-5{fill:#407bff;}.cls-6{fill:#2d7cff;}.cls-7{fill:#ed847e;}.cls-8{fill:#b55b52;}.cls-11,.cls-12,.cls-9{fill:#fff;}.cls-9{opacity:0.6;}.cls-11{opacity:0.7;}.cls-13{fill:#a02724;}</style></defs><g id="Layer_2" data-name="Layer 2"><g id="Shadow"><ellipse id="_Path_" data-name="&lt;Path&gt;" class="cls-1" cx="193.89" cy="328.41" rx="193.89" ry="11.32"/></g><g id="Character_1" data-name="Character 1"><polygon class="cls-2" points="84.22 319.61 75.61 319.48 76.15 299.45 84.76 299.59 84.22 319.61"/><path class="cls-3" d="M75.51,318.48l9.41.15a.65.65,0,0,1,.66.6l.82,7.7A1.4,1.4,0,0,1,85,328.44c-3.39-.11-8.27-.39-12.54-.45-5-.08-4.5.12-10.35,0-3.54,0-4.11-3.65-2.59-3.95,6.91-1.37,7.6-1.45,13.84-4.95A4.37,4.37,0,0,1,75.51,318.48Z"/><path class="cls-2" d="M73.52,61.77C71.49,68,69.33,74.2,67,80.36c-1.14,3.08-2.3,6.15-3.51,9.21s-2.42,6.12-3.7,9.18c-.29.73-.7,1.61-1.06,2.43s-.76,1.61-1.15,2.39-.81,1.55-1.22,2.3-.82,1.51-1.25,2.24c-1.66,3-3.49,5.76-5.3,8.56-3.68,5.56-7.58,10.88-11.79,16.06l-5.43-3.54,8.63-17.44a146.8,146.8,0,0,0,7.45-17.17L54.8,76.06c2-6.18,4.15-12.36,6.32-18.48Z"/><path class="cls-3" d="M79.31,57.76C77.2,64.7,69.91,82,69.91,82L53.2,70.37s2.94-11.28,9.55-16.59C72.13,46.25,82,48.81,79.31,57.76Z"/><path class="cls-4" d="M69.37,63.4c-6.15,1.49-10.81,7.69-10.06,11.24L69.9,82s2.28-8.71,6.29-14.52C73.84,65.17,71.15,63,69.37,63.4Z"/><path class="cls-5" d="M66.67,79.2a11,11,0,0,0,1.66-1.51S55.92,69.05,52.79,69a4,4,0,0,0-.91,2.33S62.72,79.3,66.67,79.2Z"/><path class="cls-2" d="M35.68,126.21l-8.31,5.37L34,138.81s6.94-3.27,5.75-9.56Z"/><path class="cls-2" d="M23.85,140l4.1,2.08a2,2,0,0,0,2.11-.2l4-3-6.65-7.23L23.18,137A2,2,0,0,0,23.85,140Z"/><polygon class="cls-4" points="76.15 299.46 75.87 309.78 84.49 309.92 84.77 299.59 76.15 299.46"/><path class="cls-3" d="M115.11,53.47c-8,32.79-4.86,67.6-5.43,74.64,0,0-46.18-.74-46.18-.75-3-36.36,0-60.23,1.88-70.8a8.8,8.8,0,0,1,7.73-7.17l.57-.06c1.26-.13,2.62-.25,4-.32.78,0,1.58-.07,2.38-.09a173,173,0,0,1,19.64,1.46c1.23.15,2.48.34,3.7.53s2.24.4,3.28.61C111.44,52.45,115.11,53.47,115.11,53.47Z"/><path class="cls-4" d="M105.82,67.54c-.71,3.17.79,17.65,4.24,21.22.27-4.64.69-9.48,1.3-14.42Z"/><path class="cls-2" d="M98.58,28.19c-1.47,6.21-3.12,17.66,1.14,22.19C96.16,53.52,91.5,57.59,84,56.83c-6.09-.62-6-5.34-3.94-7.91,7.11-1.15,7.12-6.38,6.07-11.36Z"/><path class="cls-4" d="M97.35,35.12,92.23,33l-1.91,1.44c.2.69-.31,3.24,0,4,.88,2.12,4.41,3.23,6.69,2.87A42.63,42.63,0,0,1,97.35,35.12Z"/><path class="cls-3" d="M93.92,1.38c-3.59,2.66-3.6,3-7.36,2.27S72.17-1,75,8.21c-8.94.53-7.68,9.94-3.68,15.24s8,5.81,8.46,10.16c.58,5.11,9.23,6.1,10.44,3.23L102.57,26.3c4.1.24.14-6.43,2.17-10.27a4.3,4.3,0,0,0,.06-3.89,7,7,0,0,0,2.83-2.47C111.73,3.6,99.72-2.9,93.92,1.38Z"/><path class="cls-2" d="M79.88,20C81,28.47,81.16,33.5,85.76,37.56c6.91,6.1,17.19,1.41,18.67-7.25,1.33-7.8-.66-20.37-9.24-23.14A11.79,11.79,0,0,0,79.88,20Z"/><path class="cls-3" d="M80.74,9.91c4.47-1,8.57,4.17,6.14,7.78s2.75,8.08-2.66,10.4c-3.78,1.61-5.61-2.31-7.44-5C74,19,76,11,80.74,9.91Z"/><path class="cls-3" d="M76.37,8.82c5.46,2.94,6.79,5.8,14.9,3,4.79-1.64,6,2.13,12.16.79,1.19-7.26-7.29-8.88-11.57-8.07S76.37,8.82,76.37,8.82Z"/><path class="cls-3" d="M76.37,10.28a1.48,1.48,0,0,1-.46-.08c-5.85-2-5.77-6.42-5.76-6.6a1.49,1.49,0,0,1,1.5-1.41,1.46,1.46,0,0,1,1.41,1.48c0,.15.09,2.52,3.78,3.77a1.46,1.46,0,0,1-.47,2.84Z"/><path class="cls-2" d="M78.51,28.24A8.23,8.23,0,0,0,83,31.72c2.22.61,2.75-1.82,1.64-4.28-1-2.21-3.36-5.19-5.35-4.7S77.09,26.07,78.51,28.24Z"/><path class="cls-6" d="M90.27,213.05c-.35-43.41,9.26-85.1,9.26-85.1l-36-.58s4.14,62.69,5.58,89c1.49,27.3,3.59,91.4,3.59,91.4l14.61.23S92.29,247.31,90.27,213.05Z"/><path class="cls-4" d="M91.7,151.83c-10.26,14-5.65,40.47-1.44,59.14a401.86,401.86,0,0,1,5.23-61.46Z"/><polygon class="cls-3" points="71.79 308.05 89.16 308.32 90.14 302.69 70.78 302.09 71.79 308.05"/><path class="cls-3" d="M94,22.05c0,.7.45,1.23.9,1.2s.79-.62.74-1.32-.45-1.23-.9-1.2S93.9,21.36,94,22.05Z"/><path class="cls-3" d="M102.11,21.47c0,.69.45,1.23.91,1.2s.78-.63.74-1.32-.45-1.23-.91-1.2S102.07,20.77,102.11,21.47Z"/><path class="cls-7" d="M99.72,21.58a24.44,24.44,0,0,0,3.71,5.69,4,4,0,0,1-3.28.87Z"/><path class="cls-3" d="M95.54,30.12a5.69,5.69,0,0,1-4.07-2,.21.21,0,1,1,.33-.25,5.46,5.46,0,0,0,4.62,1.82.2.2,0,1,1,0,.4A5.56,5.56,0,0,1,95.54,30.12Z"/><path class="cls-3" d="M92,19.38a.36.36,0,0,1-.2-.06.42.42,0,0,1-.12-.57,4.11,4.11,0,0,1,3.22-1.93.4.4,0,0,1,.4.41.41.41,0,0,1-.41.41h0a3.26,3.26,0,0,0-2.52,1.56A.43.43,0,0,1,92,19.38Z"/><path class="cls-3" d="M104,17.3a.42.42,0,0,1-.35-.16,3.21,3.21,0,0,0-2.6-1.39.4.4,0,0,1-.42-.38.4.4,0,0,1,.38-.43,4,4,0,0,1,3.3,1.71.4.4,0,0,1-.09.57A.35.35,0,0,1,104,17.3Z"/><path class="cls-5" d="M73.94,319.25a.2.2,0,0,0,.14-.17.2.2,0,0,0-.1-.21c-.39-.21-3.83-2-4.89-1.45a.67.67,0,0,0-.35.54h0a1.18,1.18,0,0,0,.37,1c.93.85,3.41.55,4.81.29Zm-4.58-1.5c.65-.22,2.52.53,3.88,1.2-1.91.29-3.33.18-3.85-.29a.74.74,0,0,1-.24-.67.24.24,0,0,1,.13-.21Z"/><path class="cls-5" d="M73.94,319.25l.06,0a.18.18,0,0,0,.08-.18c0-.1-.2-2.43-1.28-3.35a1.52,1.52,0,0,0-1.13-.37h0c-.56.05-.73.33-.77.56-.17,1,1.86,2.87,2.89,3.36A.26.26,0,0,0,73.94,319.25Zm-2.44-3.48a.87.87,0,0,1,.21,0h0a1,1,0,0,1,.82.27,4.77,4.77,0,0,1,1.1,2.68c-1-.65-2.43-2.14-2.33-2.73A.25.25,0,0,1,71.5,315.77Zm.19-.24h0Z"/><polygon class="cls-2" points="145.7 319.61 137.05 319.48 131.51 299.45 140.16 299.59 145.7 319.61"/><path class="cls-3" d="M136.44,318.48l9.44.15a.82.82,0,0,1,.77.6l2.13,7.7a1.16,1.16,0,0,1-1.15,1.51c-3.41-.11-4.52-.39-8.8-.45-5-.08-2.67.12-8.53,0-3.55,0-4.73-3.64-3.27-3.95,4.62-1,5.56-2.92,7.37-4.95A2.63,2.63,0,0,1,136.44,318.48Z"/><polygon class="cls-4" points="131.51 299.46 134.37 309.78 143.03 309.92 140.17 299.59 131.51 299.46"/><path class="cls-6" d="M124.06,213.65c-4.9-38.8-8.57-76.87-14.38-85.54l-30.51-.49s17.65,63,23.6,88.88c6.19,26.87,27.66,88.68,27.66,88.68l13.92.2S133.19,243.67,124.06,213.65Z"/><polygon class="cls-3" points="128.51 308.05 145.88 308.32 146.86 302.69 127.5 302.09 128.51 308.05"/><path class="cls-5" d="M137,319.13a.21.21,0,0,0,.18-.1.2.2,0,0,0,0-.24c-.29-.33-2.9-3.21-4.09-3a.63.63,0,0,0-.51.38h0a1.13,1.13,0,0,0,0,1.07c.58,1.12,3,1.69,4.41,1.93Zm-3.79-3c.68,0,2.18,1.36,3.23,2.46-1.9-.38-3.19-1-3.52-1.6a.75.75,0,0,1,0-.7.22.22,0,0,1,.2-.16Z"/><path class="cls-5" d="M137,319.13H137a.18.18,0,0,0,.14-.14c0-.09.65-2.35-.06-3.58a1.42,1.42,0,0,0-.93-.73h0c-.54-.15-.8.05-.91.26-.5.85.76,3.33,1.56,4.14A.2.2,0,0,0,137,319.13ZM135.87,315l.21,0h0a1.1,1.1,0,0,1,.69.54,4.8,4.8,0,0,1,.11,2.89c-.77-1-1.55-2.85-1.25-3.36C135.65,315.1,135.69,315,135.87,315Zm.27-.16h0Z"/><path class="cls-2" d="M118.77,62.82l.35.8.42.9.86,1.84c.61,1.22,1.25,2.45,1.92,3.65,1.32,2.43,2.76,4.79,4.29,7.08a76.08,76.08,0,0,0,4.89,6.6c.85,1.07,1.8,2,2.68,3.07l1.42,1.44.71.72.09.09h0s0,0-.07,0-.25,0-.22,0a.94.94,0,0,0,.52.06,8.53,8.53,0,0,0,2.68-.81,37.24,37.24,0,0,0,6.64-4.08,146.69,146.69,0,0,0,13-11.25l5.08,4a86.76,86.76,0,0,1-5.43,7.59,78.07,78.07,0,0,1-6.3,7,43,43,0,0,1-7.92,6.3,19.85,19.85,0,0,1-5.68,2.33,12.94,12.94,0,0,1-3.93.28,11,11,0,0,1-4.45-1.39c-.33-.2-.68-.41-1-.64l-.46-.35-.23-.18-.12-.1-.93-.8-1.86-1.61c-1.18-1.12-2.4-2.22-3.48-3.43A71,71,0,0,1,116,84.52a77.54,77.54,0,0,1-5.22-8.1q-1.17-2.11-2.23-4.29c-.35-.73-.71-1.46-1-2.22L107,68.76l-.5-1.28Z"/><path class="cls-3" d="M115.11,53.48c8,2.46,11.67,20.3,11.67,20.3L114.6,84.48A49.92,49.92,0,0,1,103.76,67.6C99.65,56.59,105.45,50.49,115.11,53.48Z"/><path class="cls-5" d="M127.37,74.1a12.4,12.4,0,0,0-.86-2.07s-12.32,8.78-13.45,11.7a4,4,0,0,0,1.88,1.64S126.13,77.85,127.37,74.1Z"/><path class="cls-2" d="M157.46,74.82l4.67-7.39,6.93,7.85s-5,6.18-8.74,4Z"/><path class="cls-2" d="M171,65.36l2,3.16a3,3,0,0,1-.58,3.88l-3.29,2.88-6.93-7.85,4.61-3A3,3,0,0,1,171,65.36Z"/></g><g id="Character_2" data-name="Character 2"><path class="cls-3" d="M307.91,15.11c-8.07-3.55-17.41-5.56-22.09,2.09-3.07,5-4.6,15.22-10,20.72a4.42,4.42,0,0,0-1.48,3.22.85.85,0,0,0,0,.23c.09,3.08,2.56,7.2,8.91,8.71a10.74,10.74,0,0,1-3.18-3.15,21.21,21.21,0,0,0,8.28,1.74c7.48-.08,13.23.49,16.66,2.27s9.67-6,9.38-9.54c1.36,2,3,0,3.54-4.92C319.36,23.88,315.25,13.51,307.91,15.11Z"/><path class="cls-5" d="M289.52,54.71a6.55,6.55,0,1,1,6.54-6.54A6.56,6.56,0,0,1,289.52,54.71Zm0-12.6a6.06,6.06,0,1,0,6.06,6.06A6.06,6.06,0,0,0,289.52,42.11Z"/><path class="cls-8" d="M282.76,77.44a134.29,134.29,0,0,1-8.34,14.2,80.31,80.31,0,0,1-5,6.76,36,36,0,0,1-6.47,6.4,9.26,9.26,0,0,1-1.47.91,7.76,7.76,0,0,1-6.09.39,12.39,12.39,0,0,1-4.82-3.3,25.24,25.24,0,0,1-2.87-3.66c-.81-1.24-1.53-2.48-2.19-3.73a81.08,81.08,0,0,1-6-15.43l4.37-1.64a129.06,129.06,0,0,0,7.74,13.41,30.28,30.28,0,0,0,4.48,5.38,4.28,4.28,0,0,0,1.79,1.09c.11,0,0-.06-.14,0s-.12,0-.14,0-.05,0,.19-.19a31.82,31.82,0,0,0,4.54-5.14c1.47-2,2.88-4.13,4.26-6.29s2.67-4.42,4-6.67,2.57-4.56,3.78-6.76Z"/><path class="cls-5" d="M280,64.3c-3.92-.14-10.86,14.13-10.86,14.13l7.47,16.72s14.65-19.27,13-24.11C287.92,66,285.71,64.5,280,64.3Z"/><path class="cls-9" d="M280,64.3c-3.92-.14-10.86,14.13-10.86,14.13l7.47,16.72s14.65-19.27,13-24.11C287.92,66,285.71,64.5,280,64.3Z"/><path class="cls-8" d="M243.24,71.62,244.41,82l-2.72,1.9c-3.74-.86-5.29-6.58-5.29-6.58l-1.68-3.67a4.27,4.27,0,0,1,.87-4.79l.76-.75a3.39,3.39,0,0,1,5.21.43l1.09,1.55A3.35,3.35,0,0,1,243.24,71.62Z"/><polygon class="cls-8" points="298.95 320.63 289.73 320.63 288.89 299.27 298.12 299.27 298.95 320.63"/><path class="cls-3" d="M288.87,319.56h10.37a.65.65,0,0,1,.67.63l.35,8.2a1.67,1.67,0,0,1-1.64,1.64c-3.61-.06-5.33-.27-9.89-.27-2.8,0-9.25.29-13.13.29s-3.69-3.83-2-4.18c7.39-1.55,11.07-3.7,13.71-5.74A2.65,2.65,0,0,1,288.87,319.56Z"/><g class="cls-10"><polygon points="288.89 299.27 289.32 310.29 298.55 310.29 298.12 299.27 288.89 299.27"/></g><path class="cls-5" d="M276.29,68.87c-.2,5.83.81,19.44,6.94,51.17l37.45-1.12c-1-14.16-1.34-23.29,3.74-49.87a6.07,6.07,0,0,0-5.25-7.18c-2.75-.32-6.1-.62-9.48-.68a118.82,118.82,0,0,0-17,.5c-4.33.53-9,1.43-12.08,2.07A5.43,5.43,0,0,0,276.29,68.87Z"/><path class="cls-11" d="M276.29,68.87c-.2,5.83.81,19.44,6.94,51.17l37.45-1.12c-1-14.16-1.34-23.29,3.74-49.87a6.07,6.07,0,0,0-5.25-7.18c-2.75-.32-6.1-.62-9.48-.68a118.82,118.82,0,0,0-17,.5c-4.33.53-9,1.43-12.08,2.07A5.43,5.43,0,0,0,276.29,68.87Z"/><path class="cls-8" d="M307.43,42.09c-.91,5.5-1.68,15.56,2.26,19.1a21.2,21.2,0,0,1-13,9.27c-8.63-4.38-4-8.77-4-8.77,6.06-1.63,5.77-6.16,4.58-10.38Z"/><polygon class="cls-5" points="296.7 70.46 297.82 68.27 303.81 69.62 296.7 70.46"/><path class="cls-12" d="M297.82,68.27c1.92-.88,10.83-6.68,11.18-8.49a21.73,21.73,0,0,1,5.06,1.34s-1.6,7.15-10.25,12A9.5,9.5,0,0,0,297.82,68.27Z"/><polygon class="cls-5" points="296.7 70.46 296.2 68.27 292.52 68.53 296.7 70.46"/><path class="cls-12" d="M296.2,68.27c-3-2-1.88-6.1-1.59-7.91a16,16,0,0,0-4.37,1.08s-4.51,4.14-.14,11.72A13.88,13.88,0,0,1,296.2,68.27Z"/><path class="cls-4" d="M303.28,45.85l-6,5.46a17,17,0,0,1,.62,3c2.32-.4,5.44-3.06,5.62-5.51A8,8,0,0,0,303.28,45.85Z"/><path class="cls-8" d="M310.34,30.41c-.41,9.14-.38,13-4.92,17.79-6.81,7.17-18,4.68-20.3-4.41C283,35.62,284,22,292.91,18.25A12.49,12.49,0,0,1,310.34,30.41Z"/><path class="cls-3" d="M303.81,20.73c-3.07,5.16-7.44-1.4-10.92,2.52-2.79,3.15-7.36-.16-10,8.81.92-7.71,2.21-14.51,10.08-16.77C297.82,13.89,307.1,13.36,303.81,20.73Z"/><path class="cls-3" d="M305.38,17.2c-2.69,1.86-5.45,4.56-5.12,7.85s5.05,1.85,5.68,4.16-2.82,7.17,2.19,7.64c5.72-3.18,7.32-3.88,6.28-8.78S309.75,16.52,305.38,17.2Z"/><path class="cls-6" d="M283.15,120s-3.63,68.14-3.81,96.15c-.2,29.14,8,92,8,92h12.47s-2.37-63.51-.45-92.25c2.09-31.33,9.38-96.68,9.38-96.68Z"/><polygon class="cls-3" points="300.86 308.6 286.22 308.6 285.62 303.93 302.07 303.36 300.86 308.6"/><path class="cls-4" d="M306.11,143.69c-1.34-1.68-3.11-.81-5.42,4-7.88,16.34-3.88,42.42-.51,57.44C301.7,186.41,304.2,161.78,306.11,143.69Z"/><path class="cls-3" d="M294.91,33.9c0,.75-.37,1.36-.86,1.37s-.89-.59-.9-1.34.37-1.35.85-1.36S294.89,33.16,294.91,33.9Z"/><path class="cls-3" d="M286.5,33.84c0,.74-.37,1.35-.85,1.36s-.89-.59-.91-1.33.37-1.36.86-1.37S286.49,33.09,286.5,33.84Z"/><path class="cls-3" d="M285.82,32.54l-1.8-.48S285,33.44,285.82,32.54Z"/><path class="cls-13" d="M289.43,34.52a19.62,19.62,0,0,1-2.57,4.8,3.19,3.19,0,0,0,2.66.45Z"/><path class="cls-3" d="M294,42.22a7.35,7.35,0,0,1-1.09.1.21.21,0,0,1-.22-.21.24.24,0,0,1,.21-.23,5.87,5.87,0,0,0,4.77-2.38.22.22,0,0,1,.37.23A6.14,6.14,0,0,1,294,42.22Z"/><path class="cls-8" d="M312.94,39a6.68,6.68,0,0,1-3.73,3.5c-2.2.81-3.49-1.11-3-3.29.41-2,2-4.74,4.33-4.62A3,3,0,0,1,312.94,39Z"/><path class="cls-5" d="M309.08,54.71a6.55,6.55,0,1,1,6.54-6.54A6.56,6.56,0,0,1,309.08,54.71Zm0-12.6a6.06,6.06,0,1,0,6.05,6.06A6.07,6.07,0,0,0,309.08,42.11Z"/><path class="cls-3" d="M298.21,29.89a.44.44,0,0,1-.46-.23c-.94-1.79-3.52-2.14-3.55-2.15a.42.42,0,0,1-.37-.49.43.43,0,0,1,.48-.37c.13,0,3.06.42,4.21,2.6a.44.44,0,0,1-.18.59A.35.35,0,0,1,298.21,29.89Z"/><path class="cls-3" d="M283.88,29.2a.41.41,0,0,1-.41-.15.42.42,0,0,1,0-.61,4.35,4.35,0,0,1,3.86-1,.44.44,0,0,1-.25.84h0a3.46,3.46,0,0,0-3.05.82A.35.35,0,0,1,283.88,29.2Z"/><path class="cls-8" d="M330.14,72.94c1.69,4.81,3.17,9.61,4.51,14.52.68,2.45,1.33,4.92,1.88,7.45.27,1.27.54,2.55.77,3.88a35.73,35.73,0,0,1,.5,4.29v.63l0,.74c0,.44-.06.71-.1,1.07-.06.7-.15,1.33-.24,2-.18,1.29-.39,2.55-.6,3.81-.42,2.51-.92,5-1.42,7.45-1,4.93-2.19,9.82-3.53,14.68l-4.61-.76c.27-5,.64-10,1-14.94l.59-7.41c.1-1.23.18-2.45.24-3.65,0-.59.08-1.2.09-1.75,0-.26,0-.61,0-.8l0-.2,0-.3a30.36,30.36,0,0,0-.6-3.11c-.27-1.13-.56-2.28-.88-3.44-.66-2.32-1.34-4.67-2.06-7L321.21,76Z"/><path class="cls-5" d="M319.17,61.87c12.28,1.52,14.71,16.52,16.45,20.29l-12,10.11S316,79.44,314.84,74.46C313.69,69.27,314.73,61.31,319.17,61.87Z"/><path class="cls-11" d="M319.17,61.87c12.28,1.52,14.71,16.52,16.45,20.29l-12,10.11S316,79.44,314.84,74.46C313.69,69.27,314.73,61.31,319.17,61.87Z"/><path class="cls-5" d="M285.25,321.17a3.25,3.25,0,0,1-2.18-.56,1.12,1.12,0,0,1-.29-1.07.8.8,0,0,1,.43-.58c1.19-.62,4.68,1.26,5.07,1.48a.2.2,0,0,1,.1.22.25.25,0,0,1-.2.18A15.88,15.88,0,0,1,285.25,321.17Zm-1.45-1.9a1,1,0,0,0-.42.07.31.31,0,0,0-.17.24.7.7,0,0,0,.18.7c.51.5,2,.59,4.1.25A11,11,0,0,0,283.8,319.27Z"/><path class="cls-5" d="M288.14,320.85l-.09,0c-1.05-.5-3-2.49-2.75-3.53a.89.89,0,0,1,.89-.62,1.47,1.47,0,0,1,1.17.38c1.06,1,1,3.45,1,3.55a.24.24,0,0,1-.11.2A.33.33,0,0,1,288.14,320.85Zm-1.82-3.74h-.13c-.4,0-.45.2-.46.25-.17.63,1.15,2.19,2.2,2.87a4.65,4.65,0,0,0-.88-2.85A1,1,0,0,0,286.32,317.11Z"/><polygon class="cls-8" points="354.88 317.14 345.87 319.09 338.36 298.86 347.38 296.91 354.88 317.14"/><path class="cls-3" d="M345.31,318.12l10.13-2.19a.74.74,0,0,1,.86.46l3,7.74a1.46,1.46,0,0,1-1.08,1.91c-3.55.71-5.3.87-9.75,1.83-2.74.59-7.59,2.45-11.45,2.18s-3.85-4.11-2.22-4.34c7.3-1,7.22-4.2,9.14-6.71A2.42,2.42,0,0,1,345.31,318.12Z"/><path class="cls-5" d="M344.2,320a3.55,3.55,0,0,1-2.31-.08,1.23,1.23,0,0,1-.62-1,.66.66,0,0,1,.23-.64c1-.84,5,.21,5.43.33a.25.25,0,0,1,.17.2.22.22,0,0,1-.13.21A15.7,15.7,0,0,1,344.2,320Zm-2-1.52a.89.89,0,0,0-.38.17.28.28,0,0,0-.09.26.8.8,0,0,0,.4.63c.66.37,2.17.14,4.09-.63A12.28,12.28,0,0,0,342.17,318.49Z"/><path class="cls-5" d="M346.93,319.09h-.09c-1.19-.26-3.76-1.74-3.83-2.79,0-.25.09-.59.67-.77a1.55,1.55,0,0,1,1.26.11c1.35.69,2.12,3.07,2.15,3.17a.23.23,0,0,1,0,.21A.19.19,0,0,1,346.93,319.09Zm-3-3.18-.12,0c-.38.12-.37.28-.37.34,0,.63,1.83,1.84,3.08,2.27a5.17,5.17,0,0,0-1.79-2.53A1.18,1.18,0,0,0,343.94,315.91Z"/><g class="cls-10"><polygon points="338.36 298.87 342.23 309.29 351.25 307.35 347.38 296.92 338.36 298.87"/></g><path class="cls-5" d="M320.68,118.92c9,14.28,6.47,66.8,7.89,94.84C337,238.63,351.9,305,351.9,305l-12.19,2.64s-26.9-65.9-32.48-94.05c-6.15-31.07-13.65-94.69-13.65-94.69Z"/><polygon class="cls-3" points="352.81 305.29 338.51 308.38 337.01 303.92 352.97 299.89 352.81 305.29"/><path class="cls-3" d="M294.22,32.61l-1.8-.49S293.36,33.5,294.22,32.61Z"/><path class="cls-3" d="M321.17,116.71l1.06,3.32c.14.26-.16.53-.6.54l-38.54,1.15c-.33,0-.62-.15-.65-.36L282,118c0-.23.25-.44.62-.45l37.92-1.13A.69.69,0,0,1,321.17,116.71Z"/><path class="cls-5" d="M316.2,121.1l1,0c.2,0,.35-.12.33-.24l-.6-4.34c0-.13-.2-.23-.4-.22l-1,0c-.2,0-.35.11-.33.24l.6,4.34C315.82,121,316,121.11,316.2,121.1Z"/><path class="cls-5" d="M286,122l1,0c.21,0,.36-.12.34-.24l-.61-4.34c0-.13-.19-.23-.4-.22l-1,0c-.2,0-.35.11-.34.24l.61,4.34C285.58,121.91,285.76,122,286,122Z"/><path class="cls-5" d="M301.08,121.55l1,0c.2,0,.35-.12.33-.24l-.6-4.34c0-.13-.2-.23-.4-.22l-1,0c-.2,0-.35.11-.33.24l.6,4.34C300.7,121.46,300.88,121.56,301.08,121.55Z"/><path class="cls-8" d="M327.91,131.16l-6.75,7.32,9.37.42c0,.11,3.05-5,1.14-8.36Z"/><path class="cls-8" d="M323.6,146.18l2.72,0a2.8,2.8,0,0,0,2.66-2l1.55-5.24-9.37-.42-.38,4.67A2.8,2.8,0,0,0,323.6,146.18Z"/></g><g id="Heart"><path class="cls-5" d="M272.36,86.61a49.23,49.23,0,0,0-34.92-14.46H216.32v4.73a49.29,49.29,0,0,0-13.8,9.73,49.2,49.2,0,0,0-35.3-14.45H146.11v4.92a49.38,49.38,0,0,0-13.43,79.39l48.5,48.5H181V226.3h15.32a15.09,15.09,0,0,0,10.67-4.42l65.42-65.42A49.39,49.39,0,0,0,272.36,86.61Z"/><path class="cls-4" d="M272.36,86.61a49.23,49.23,0,0,0-34.92-14.46H216.32v4.73a49.29,49.29,0,0,0-13.8,9.73,49.2,49.2,0,0,0-35.3-14.45H146.11v4.92a49.38,49.38,0,0,0-13.43,79.39l48.5,48.5H181V226.3h15.32a15.09,15.09,0,0,0,10.67-4.42l65.42-65.42A49.39,49.39,0,0,0,272.36,86.61Z"/><path class="cls-5" d="M250.79,86.61a49.39,49.39,0,0,0-69.84,0,49.39,49.39,0,0,0-69.84,69.85L181,226.3l69.84-69.84A49.39,49.39,0,0,0,250.79,86.61Z"/><rect class="cls-5" x="154.24" y="196.7" width="1" height="15.27" transform="translate(-99.16 169.27) rotate(-45)"/><rect class="cls-5" x="166.36" y="212.97" width="1" height="6.96" transform="translate(-104.18 181.4) rotate(-45)"/><path class="cls-4" d="M250.79,86.61a49.39,49.39,0,0,0-69.84,0,49.39,49.39,0,0,0-69.84,69.85L181,226.3l69.84-69.84A49.39,49.39,0,0,0,250.79,86.61Z"/><path class="cls-6" d="M118.31,149.25a39.19,39.19,0,1,1,55.43-55.43L181,101l7.2-7.2a39.2,39.2,0,1,1,55.44,55.43L181,211.89Z"/><path class="cls-12" d="M130.05,114.79h17.21v4.52h-5.77v13.81h-5.67V119.31h-5.77Z"/><path class="cls-12" d="M149.85,114.79h5.67v6.41h6.19v-6.41h5.69v18.33h-5.69V125.7h-6.19v7.42h-5.67Z"/><path class="cls-12" d="M182.43,130.09H176l-.89,3h-5.79l6.89-18.33h6.18l6.89,18.33h-5.93Zm-1.17-4-2-6.59-2,6.59Z"/><path class="cls-12" d="M191.12,114.79h5.29l6.9,10.14V114.79h5.34v18.33h-5.34l-6.86-10.07v10.07h-5.33Z"/><path class="cls-12" d="M212.44,114.79h5.66v6.92l5.94-6.92h7.53l-6.69,6.92,7,11.41h-7L221,125.58l-2.93,3.07v4.47h-5.66Z"/><path class="cls-12" d="M150.17,145.52h6.29l3.69,6.18,3.7-6.18h6.26L163,156.17v7.68h-5.67v-7.68Z"/><path class="cls-12" d="M169.69,154.7a8.68,8.68,0,0,1,9.46-9.49q4.57,0,7,2.45a9.25,9.25,0,0,1,2.48,6.89,11.3,11.3,0,0,1-1.08,5.27,7.66,7.66,0,0,1-3.13,3.2,10.33,10.33,0,0,1-5.09,1.14,11.9,11.9,0,0,1-5.14-1,7.78,7.78,0,0,1-3.29-3.13A10.41,10.41,0,0,1,169.69,154.7Zm5.66,0a6.14,6.14,0,0,0,1,4,3.92,3.92,0,0,0,5.64,0c.66-.8,1-2.22,1-4.27a5.65,5.65,0,0,0-1.05-3.78,3.54,3.54,0,0,0-2.83-1.19,3.43,3.43,0,0,0-2.75,1.21A6.16,6.16,0,0,0,175.35,154.72Z"/><path class="cls-12" d="M203.66,145.52h5.65v10.92a9.41,9.41,0,0,1-.5,3.07,6.67,6.67,0,0,1-1.59,2.52,6.34,6.34,0,0,1-2.27,1.52,11.37,11.37,0,0,1-4,.61,25.79,25.79,0,0,1-2.92-.18,7.77,7.77,0,0,1-2.65-.75,6.53,6.53,0,0,1-1.94-1.58,5.84,5.84,0,0,1-1.21-2.11,11,11,0,0,1-.53-3.1V145.52h5.66V156.7a3.16,3.16,0,0,0,.83,2.34,3.06,3.06,0,0,0,2.31.85,3.11,3.11,0,0,0,2.29-.83,3.22,3.22,0,0,0,.83-2.36Z"/></g></g></svg>